HIERARCHY
ROOT Hips
{
	OFFSET -0.001795 -0.223333 0.028219
	CHANNELS 6 Xposition Yposition Zposition Zrotation Yrotation Xrotation 
	JOINT LeftUpLeg
	{
		OFFSET 0.069520 -0.091406 -0.006815
		CHANNELS 3 Zrotation Yrotation Xrotation
		JOINT LeftLeg
		{
			OFFSET 0.034277 -0.375199 -0.004496
			CHANNELS 3 Zrotation Yrotation Xrotation
			JOINT LeftFoot
			{
				OFFSET -0.013596 -0.397961 -0.043693
				CHANNELS 3 Zrotation Yrotation Xrotation
				JOINT LeftToe
				{
					OFFSET 0.026358 -0.055791 0.119288
					CHANNELS 3 Zrotation Yrotation Xrotation
					End Site
					{
						OFFSET 0.000000 0.000000 0.000000
					}
				}
			}
		}
	}
	JOINT RightUpLeg
	{
		OFFSET -0.067670 -0.090522 -0.004320
		CHANNELS 3 Zrotation Yrotation Xrotation
		JOINT RightLeg
		{
			OFFSET -0.038290 -0.382569 -0.008850
			CHANNELS 3 Zrotation Yrotation Xrotation
			JOINT RightFoot
			{
				OFFSET 0.015774 -0.398415 -0.042312
				CHANNELS 3 Zrotation Yrotation Xrotation
				JOINT RightToe
				{
					OFFSET -0.025372 -0.048144 0.123348
					CHANNELS 3 Zrotation Yrotation Xrotation
					End Site
					{
						OFFSET 0.000000 0.000000 0.000000
					}
				}
			}
		}
	}
	JOINT Spine
	{
		OFFSET -0.002533 0.108963 -0.026696
		CHANNELS 3 Zrotation Yrotation Xrotation
		JOINT Spine1
		{
			OFFSET 0.005487 0.135180 0.001092
			CHANNELS 3 Zrotation Yrotation Xrotation
			JOINT Spine2
			{
				OFFSET 0.001457 0.052922 0.025425
				CHANNELS 3 Zrotation Yrotation Xrotation
				JOINT Neck
				{
					OFFSET -0.002778 0.213870 -0.042857
					CHANNELS 3 Zrotation Yrotation Xrotation
					JOINT Head
					{
						OFFSET 0.005152 0.064970 0.051349
						CHANNELS 3 Zrotation Yrotation Xrotation
						End Site
						{
							OFFSET 0.000000 0.000000 0.000000
						}
					}
				}
				JOINT LeftShoulder
				{
					OFFSET 0.078845 0.121749 -0.034090
					CHANNELS 3 Zrotation Yrotation Xrotation
					JOINT LeftArm
					{
						OFFSET 0.090977 0.030469 -0.008868
						CHANNELS 3 Zrotation Yrotation Xrotation
						JOINT LeftForeArm
						{
							OFFSET 0.259612 -0.012772 -0.027456
							CHANNELS 3 Zrotation Yrotation Xrotation
							JOINT LeftHand
							{
								OFFSET 0.249234 0.008986 -0.001171
								CHANNELS 3 Zrotation Yrotation Xrotation
								End Site
								{
									OFFSET 0.000000 0.000000 0.000000
								}
							}
						}
					}
				}
				JOINT RightShoulder
				{
					OFFSET -0.081759 0.118833 -0.038615
					CHANNELS 3 Zrotation Yrotation Xrotation
					JOINT RightArm
					{
						OFFSET -0.096012 0.032551 -0.009143
						CHANNELS 3 Zrotation Yrotation Xrotation
						JOINT RightForeArm
						{
							OFFSET -0.253742 -0.013329 -0.021401
							CHANNELS 3 Zrotation Yrotation Xrotation
							JOINT RightHand
							{
								OFFSET -0.255298 0.007772 -0.005559
								CHANNELS 3 Zrotation Yrotation Xrotation
								End Site
								{
									OFFSET 0.000000 0.000000 0.000000
								}
							}
						}
					}
				}
			}
		}
	}
}
MOTION
Frames: 13
Frame Time: 0.050000
0.000000 0.951535 0.000000 -1.422664 -2.350496 3.212487 6.885235 -0.047770 1.512525 -2.971036 0.398338 -7.048138 5.191525 12.967368 13.562597 0.000000 0.000000 0.000000 -4.336918 0.116492 0.640207 2.592447 -0.318588 -3.642126 -4.418850 -13.730194 13.479302 0.000000 0.000000 0.000000 -2.369904 0.046539 0.055970 4.589640 -0.761661 -20.616730 -0.344870 0.697665 28.325814 -0.143649 1.475046 -24.756103 0.000000 0.000000 0.000000 -22.964209 0.450967 -1.317997 -55.036260 -9.726537 -4.722076 -13.340448 -23.160088 4.022287 0.000000 0.000000 0.000000 15.087642 5.812817 2.032008 60.843376 7.541188 -4.755548 10.128638 25.494252 3.297737 0.000000 0.000000 0.000000 
0.000150 0.950340 0.001200 -1.623793 -3.078404 3.788666 7.082992 -0.047611 1.574241 -2.514427 0.391436 -7.813946 5.242266 12.898418 12.930753 0.000000 0.000000 0.000000 -4.111348 0.154023 0.079820 2.331557 -0.289013 -3.229578 -4.094931 -13.076495 12.552304 0.000000 0.000000 0.000000 -2.233122 0.090508 -1.698226 4.325926 -0.804255 -19.090988 -0.162705 0.941237 28.070911 -0.790522 1.832854 -24.653480 0.000000 0.000000 0.000000 -23.293891 1.724361 -2.077066 -54.606513 -10.182592 -4.465913 -14.335024 -22.796487 4.162517 0.000000 0.000000 0.000000 14.552640 6.040222 2.094988 62.018953 7.448298 -4.833097 9.153691 27.102340 3.317455 0.000000 0.000000 0.000000 
0.000202 0.950242 0.002247 -1.163451 -3.200559 3.952469 6.971020 -0.062479 1.039314 -3.190745 0.413988 -6.685136 5.342095 13.026258 12.794828 0.000000 0.000000 0.000000 -4.428737 0.188239 -0.221784 1.738796 -0.245214 -3.137652 -3.894936 -12.853403 13.209946 0.000000 0.000000 0.000000 -2.475519 0.102818 -2.087547 4.215345 -0.771106 -19.148956 -0.440256 0.951316 28.387442 -0.643429 1.701516 -23.935537 0.000000 0.000000 0.000000 -23.706018 1.579681 -1.978681 -54.208730 -10.615011 -4.318130 -12.928817 -21.583040 3.646347 0.000000 0.000000 0.000000 15.495610 6.274602 2.191434 61.143071 8.005934 -4.533116 8.390761 27.497905 3.189390 0.000000 0.000000 0.000000 
0.000161 0.950094 0.003353 -1.280354 -4.034840 4.244009 7.212294 -0.056839 1.052291 -3.490957 0.441400 -7.012601 5.598982 13.364263 12.882683 0.000000 0.000000 0.000000 -4.523763 0.229949 -0.683077 1.851776 -0.242219 -2.825207 -3.980035 -13.122311 13.367487 0.000000 0.000000 0.000000 -2.477687 0.128713 -2.993719 4.372026 -0.839986 -18.985952 -0.481513 1.047948 28.779536 -1.014752 1.819894 -22.845415 0.000000 0.000000 0.000000 -23.722669 2.226560 -2.231790 -54.175269 -10.669571 -4.341738 -13.262336 -20.720668 3.568226 0.000000 0.000000 0.000000 15.009724 6.609852 2.279739 61.138830 8.306651 -4.426808 8.956023 28.430093 3.435442 0.000000 0.000000 0.000000 
0.000101 0.950521 0.004302 -1.219849 -4.221038 4.106002 7.251242 -0.048464 1.164530 -3.680808 0.453437 -6.861124 5.302486 12.913633 13.169542 0.000000 0.000000 0.000000 -4.675585 0.238282 -0.718185 1.617440 -0.224316 -2.791825 -3.736898 -12.732074 13.451282 0.000000 0.000000 0.000000 -2.364681 0.126931 -2.944057 4.420239 -0.901849 -18.346612 -0.835362 0.901198 28.224231 -0.885375 1.665357 -21.911308 0.000000 0.000000 0.000000 -23.618774 2.136265 -2.112996 -53.813313 -10.549262 -4.334332 -13.176749 -20.731251 3.548682 0.000000 0.000000 0.000000 15.172067 6.348650 2.072338 60.749750 8.141689 -4.436311 10.088984 29.622755 3.865334 0.000000 0.000000 0.000000 
0.000058 0.950753 0.004871 -1.164588 -4.562809 4.240232 7.322917 -0.048659 1.082285 -3.828604 0.464979 -6.784440 5.236542 12.766614 13.084839 0.000000 0.000000 0.000000 -4.722270 0.255888 -0.913010 1.404819 -0.201810 -2.543396 -3.481908 -12.316264 13.414931 0.000000 0.000000 0.000000 -2.557563 0.141603 -3.464649 4.462006 -0.919035 -18.352554 -0.755156 0.750145 28.847409 -0.942445 1.635487 -21.785777 0.000000 0.000000 0.000000 -23.536536 2.314983 -2.078048 -53.695802 -10.749694 -4.327785 -13.465108 -20.624347 3.600762 0.000000 0.000000 0.000000 14.509054 6.372214 2.037064 60.824018 8.479429 -4.355080 10.498289 30.068444 4.027319 0.000000 0.000000 0.000000 
0.000056 0.950575 0.005015 -1.160041 -4.637395 4.331192 7.483912 -0.058375 0.855702 -4.091312 0.481640 -6.784862 5.129784 12.640491 13.537173 0.000000 0.000000 0.000000 -4.827651 0.276048 -1.170354 1.507399 -0.202851 -2.305093 -3.352734 -12.123078 13.532715 0.000000 0.000000 0.000000 -2.546324 0.144209 -3.523269 4.529738 -0.960369 -18.048066 -0.925582 0.587983 28.734184 -0.734252 1.465734 -21.675307 0.000000 0.000000 0.000000 -23.164814 2.289865 -1.979851 -53.339581 -10.528948 -4.402889 -13.944561 -21.256867 3.817161 0.000000 0.000000 0.000000 14.320025 6.564427 2.091437 60.746966 8.516277 -4.326229 10.649179 30.699028 4.149105 0.000000 0.000000 0.000000 
0.000071 0.950357 0.005041 -1.155533 -4.792570 4.389705 7.367159 -0.065148 0.523046 -4.093236 0.482257 -6.370674 5.267748 12.804762 13.204703 0.000000 0.000000 0.000000 -4.844520 0.298262 -1.517533 1.596847 -0.197352 -1.841215 -3.375256 -12.125598 13.266748 0.000000 0.000000 0.000000 -2.575360 0.144197 -3.476470 4.455118 -0.947443 -17.959940 -0.833234 0.694464 28.745882 -0.818737 1.516953 -21.473215 0.000000 0.000000 0.000000 -23.062660 1.795293 -1.676485 -52.743456 -10.904789 -4.224325 -14.551805 -21.918226 4.059425 0.000000 0.000000 0.000000 14.226672 6.738010 2.183309 60.645663 8.725705 -4.221745 10.812088 30.265108 4.119310 0.000000 0.000000 0.000000 
0.000133 0.950049 0.005119 -1.147736 -4.442153 4.334831 7.407670 -0.076010 0.366127 -4.421024 0.499944 -6.259818 5.090779 12.516250 12.805383 0.000000 0.000000 0.000000 -4.827393 0.296748 -1.567570 1.614745 -0.195868 -1.674940 -3.601137 -12.467535 13.182216 0.000000 0.000000 0.000000 -2.650359 0.138717 -3.330121 4.565302 -0.978771 -17.867738 -0.860868 0.726771 28.647654 -0.834116 1.552842 -21.105241 0.000000 0.000000 0.000000 -22.505516 1.504626 -1.544974 -52.594410 -11.605060 -3.886019 -15.158772 -22.593813 4.309515 0.000000 0.000000 0.000000 14.089531 6.808589 2.271034 60.449380 8.957921 -4.077010 10.799853 29.468293 3.995879 0.000000 0.000000 0.000000 
0.000189 0.949969 0.005241 -1.008839 -4.112353 4.295272 7.318079 -0.085724 0.197825 -4.569198 0.506551 -5.965281 4.966106 12.316576 12.532649 0.000000 0.000000 0.000000 -5.073270 0.315770 -1.836157 1.605952 -0.188169 -1.352305 -3.721446 -12.676749 13.346805 0.000000 0.000000 0.000000 -2.705250 0.138809 -3.419422 4.423302 -0.948727 -17.602475 -0.871455 0.873276 28.778289 -1.009980 1.714583 -20.889593 0.000000 0.000000 0.000000 -22.049035 0.919713 -1.263450 -52.124877 -12.985344 -3.278584 -15.713085 -23.959524 4.698809 0.000000 0.000000 0.000000 14.123891 7.167549 2.520929 60.086284 9.341215 -3.872697 10.242323 28.559627 3.726840 0.000000 0.000000 0.000000 
0.000293 0.950060 0.005265 -0.831819 -3.453126 4.210546 7.313996 -0.105374 -0.105566 -4.763930 0.512909 -5.670078 4.624043 11.799930 12.302383 0.000000 0.000000 0.000000 -5.274562 0.306989 -1.708383 1.616565 -0.186340 -1.152017 -3.966212 -13.034072 13.347699 0.000000 0.000000 0.000000 -2.923628 0.130458 -3.215791 4.436336 -0.935656 -17.661197 -0.897049 0.654219 28.902449 -1.177840 1.858728 -21.161714 0.000000 0.000000 0.000000 -21.582891 0.657636 -1.128729 -52.285061 -14.293014 -2.716105 -16.161128 -25.984231 5.249162 0.000000 0.000000 0.000000 13.990455 7.282836 2.623187 60.120740 9.399636 -3.851495 9.546153 27.405098 3.396702 0.000000 0.000000 0.000000 
0.000403 0.950206 0.005056 -0.693342 -2.729519 4.300885 7.316645 -0.132138 -0.527646 -4.871004 0.512766 -5.404589 4.205195 11.183567 12.221617 0.000000 0.000000 0.000000 -5.464486 0.309539 -1.783988 1.677903 -0.190243 -0.997750 -4.317826 -13.623639 13.663759 0.000000 0.000000 0.000000 -3.019855 0.130006 -3.327412 4.471990 -0.940645 -17.493402 -0.812665 0.631160 29.127750 -1.085584 1.873447 -21.455076 0.000000 0.000000 0.000000 -21.134855 0.115948 -0.894079 -52.380189 -16.134208 -1.919803 -17.051634 -28.283309 5.991822 0.000000 0.000000 0.000000 13.768212 7.570894 2.855354 59.943950 9.603745 -3.750014 9.167248 27.062260 3.275496 0.000000 0.000000 0.000000 
0.000531 0.950326 0.004598 -0.529856 -2.170596 4.380055 7.191684 -0.158633 -1.096556 -4.813837 0.506327 -4.782714 4.008157 10.879704 11.972027 0.000000 0.000000 0.000000 -5.553397 0.323676 -2.117978 1.687183 -0.184711 -0.665753 -4.572767 -14.032696 13.820680 0.000000 0.000000 0.000000 -3.268876 0.128371 -3.387686 4.553853 -0.970263 -17.228600 -0.636229 0.751479 29.120233 -1.261971 2.055759 -21.296372 0.000000 0.000000 0.000000 -20.687236 -0.618909 -0.578399 -52.612979 -17.778963 -1.160938 -17.445344 -30.801228 6.674309 0.000000 0.000000 0.000000 13.907385 7.787198 3.056506 59.799275 9.777400 -3.637765 8.402095 26.302073 3.011105 0.000000 0.000000 0.000000 
